<?xml version="1.0" standalone="no"?>
<!DOCTYPE svg PUBLIC "-//W3C//DTD SVG 20010904//EN"
 "http://www.w3.org/TR/2001/REC-SVG-20010904/DTD/svg10.dtd">
<svg version="1.0" xmlns="http://www.w3.org/2000/svg"
 width="5453.000000pt" height="2827.000000pt" viewBox="0 0 5453.000000 2827.000000"
 preserveAspectRatio="xMidYMid meet">

<g transform="translate(0.000000,2827.000000) scale(0.100000,-0.100000)"
fill="#000000" stroke="none">
<path d="M3047 26123 c-4 -3 -7 -4876 -7 -10828 l0 -10822 134 -41 c487 -153
1359 -406 1916 -556 5102 -1374 10083 -1937 15045 -1701 1398 67 2856 208
4405 426 804 113 1612 241 3020 479 2181 368 2956 491 3915 619 2904 389 5460
501 8340 366 3787 -178 7661 -823 11328 -1885 115 -33 213 -60 218 -60 5 0 8
4843 7 12002 l-3 12003 -24156 3 c-13286 1 -24159 -1 -24162 -5z m48273
-11993 c0 -6572 -4 -11950 -8 -11950 -5 0 -125 33 -268 74 -3705 1060 -7520
1687 -11334 1861 -794 36 -1019 40 -2135 40 -1271 0 -1726 -13 -2735 -75
-1875 -117 -3506 -322 -6300 -791 -2448 -411 -2756 -461 -3515 -573 -1803
-268 -3404 -428 -4985 -501 -778 -35 -1021 -40 -2095 -40 -1072 0 -1314 5
-2110 40 -3787 170 -7654 816 -11535 1926 -315 91 -1100 325 -1175 352 l-40
14 -3 10787 -2 10786 24120 0 24120 0 0 -11950z"/>
</g>
</svg>
